<?xml version="1.0" encoding="UTF-8" standalone="no"?><!DOCTYPE svg PUBLIC "-//W3C//DTD SVG 1.1//EN" "http://www.w3.org/Graphics/SVG/1.1/DTD/svg11.dtd"><svg width="100%" height="100%" viewBox="0 0 560 807" version="1.1" xmlns="http://www.w3.org/2000/svg" xmlns:xlink="http://www.w3.org/1999/xlink" xml:space="preserve" xmlns:serif="http://www.serif.com/" style="fill-rule:evenodd;clip-rule:evenodd;stroke-linecap:round;stroke-linejoin:round;stroke-miterlimit:10;"><path d="M272.102,769.383c-43.262,-39.406 -60.598,-59.941 -76.82,-108.699c-46.086,-138.547 -4.602,-215.684 74.957,-321.742c33.324,-44.43 61.836,-159.703 -8.879,-213.883" style="fill:none;fill-rule:nonzero;stroke:#000;stroke-width:6.22px;"/><path d="M178.66,520.902c2.988,-10.629 4.539,-30.688 4.961,-34.059c3.867,-31.004 -6.578,-67.254 -23.762,-93.082c-10.461,-15.723 -24.414,-22.332 -36.184,-37.082" style="fill:none;fill-rule:nonzero;stroke:#000;stroke-width:6.22px;"/><path d="M120.758,288.391c9.461,14.219 3.625,32.391 2.918,48c-0.668,14.668 5.59,27.66 4.883,27.09c-3.598,-2.879 -9.555,-5.922 -14.535,-7.59c-14.098,-4.699 -42.848,16.66 -48.059,-9.449c-2.113,-10.59 8.145,-11.031 10.332,-19.801c1.414,-5.66 -3.57,-13.07 0.898,-17.551c5.715,-5.73 16.672,-3.211 18.863,-5.398c9.285,-9.312 3.754,-17.102 17.066,-17.102c2.648,0 5.938,-0.75 7.633,1.801Z" style="fill:none;fill-rule:nonzero;stroke:#000;stroke-width:6.22px;"/><path d="M168.867,409.156c-2.375,-0.734 -3.934,-6.266 -13.523,-11.855c-8.082,-4.711 -40.359,-10.41 -47.609,-3.152c-4.695,4.703 -13.879,10.031 -10.781,19.355c2.305,6.914 16.324,3.004 19.316,9c6.133,12.297 -7.918,23.711 8.531,31.953c5.023,2.516 10.973,-6.363 11.68,-9.902c3.039,-15.23 9.926,-41.023 32.387,-35.398Z" style="fill:none;fill-rule:nonzero;stroke:#000;stroke-width:6.22px;"/><path d="M185.883,384.25c-15.68,3.93 -14.875,29.105 -17.016,25.531c-6.281,-10.492 -13.52,-33.152 -14.875,-45.332c-0.855,-7.738 1.508,-36.711 14.375,-32.41c4.98,1.672 8.133,5.883 12.574,8.102c3.738,1.879 9.758,-5.602 15.27,-4.5c17.945,3.598 7.43,21.98 4.941,31.961c-1.352,5.41 3.059,9.258 1.348,14.398c-2.098,6.301 -11.723,1.02 -16.617,2.25Z" style="fill:none;fill-rule:nonzero;stroke:#000;stroke-width:6.22px;"/><path d="M247.598,369.531c2.379,-0.07 6.227,-8.992 7.746,-11.27c8.676,-13.043 11.23,-32.602 11.23,-48.062c0,-47.129 -37.258,-84.891 -79.496,-100.008" style="fill:none;fill-rule:nonzero;stroke:#000;stroke-width:6.22px;"/><path d="M147.348,180.211c27.418,0.02 45.184,28.699 42.168,30.711c-4.598,3.066 -21.66,12.508 -26.891,11.758c-15.285,-2.191 -21.406,-19.98 -30.168,-30.23c-1.195,-1.391 -8.781,-8.438 -8.781,-9.18c0,-0.59 8.035,-2.23 8.398,-2.301c5.086,-0.918 10.129,-0.77 15.273,-0.758"/><path d="M147.348,180.211c27.418,0.02 45.184,28.699 42.168,30.711c-4.598,3.066 -21.66,12.508 -26.891,11.758c-15.285,-2.191 -21.406,-19.98 -30.168,-30.23c-1.195,-1.391 -8.781,-8.438 -8.781,-9.18c0,-0.59 8.035,-2.23 8.398,-2.301c5.086,-0.918 10.129,-0.77 15.273,-0.758Z" style="fill:none;fill-rule:nonzero;stroke:#000;stroke-width:6.22px;"/><path d="M227.117,229.18c-15.418,-1.469 -14.852,-36.91 -14.852,-46.68c0,-4.16 -1.648,-7.602 -3.055,-11.48c-0.727,-2.008 -1.91,-6.121 -1.91,-6.121c0,0 7.875,2.281 11.457,4.211c5.605,3.031 11.418,8.191 14.512,13.781c6.746,12.16 3.086,23.809 -1.91,34.82c-1.508,3.32 -2.625,8.23 -4.242,11.469Z" style="fill:none;fill-rule:nonzero;stroke:#000;stroke-width:6.22px;"/><path d="M240.145,247.941c-13.27,-8.602 -19.699,-13.672 -37.043,-4.98c-5.805,2.91 -11.375,5.949 -16.801,9.57c-2.324,1.547 -7.641,3.438 -7.641,3.438c0,0 4.746,2.852 6.875,4.602c5.617,4.602 10.066,7.008 17.184,8.031c16.57,2.367 29.613,-6.973 37.426,-20.66"/><path d="M240.145,247.941c-13.27,-8.602 -19.699,-13.672 -37.043,-4.98c-5.805,2.91 -11.375,5.949 -16.801,9.57c-2.324,1.547 -7.641,3.438 -7.641,3.438c0,0 4.746,2.852 6.875,4.602c5.617,4.602 10.066,7.008 17.184,8.031c16.57,2.367 29.613,-6.973 37.426,-20.66Z" style="fill:none;fill-rule:nonzero;stroke:#000;stroke-width:6.22px;"/><path d="M263.438,281.609c-0.801,0.41 -2.516,-6.211 -2.672,-6.891c-0.961,-4.16 -1.691,-8.398 -2.293,-12.617c-1.879,-13.18 4.785,-24.973 14.129,-33.293c2.883,-2.57 11.406,-10 11.457,-9.949c1.59,1.59 1.785,11.621 2.289,14.152c2.805,14.047 -5.828,48.598 -22.91,48.598"/><path d="M263.438,281.609c-0.801,0.41 -2.516,-6.211 -2.672,-6.891c-0.961,-4.16 -1.691,-8.398 -2.293,-12.617c-1.879,-13.18 4.785,-24.973 14.129,-33.293c2.883,-2.57 11.406,-10 11.457,-9.949c1.59,1.59 1.785,11.621 2.289,14.152c2.805,14.047 -5.828,48.598 -22.91,48.598Z" style="fill:none;fill-rule:nonzero;stroke:#000;stroke-width:6.22px;"/><path d="M264.234,324.07c-0.711,0.23 -11.117,-16.242 -13.961,-18.719c-13.566,-11.82 -24.09,-9.672 -38.387,-5.371c-2.145,0.641 -8.016,0.758 -9.547,2.289c-1.207,1.211 9.121,7.82 10.691,10.34c7.941,12.73 14.828,19.98 33.969,17.281c7.727,-1.09 16.902,2.508 17.234,-5.82Z" style="fill:none;fill-rule:nonzero;stroke:#000;stroke-width:6.22px;"/><path d="M264.234,347.711c2.98,-4.473 11.68,-12.34 15.949,-15.762c13.473,-10.801 33.305,-20.68 51.891,-19.699c5.633,0.289 12.781,1.969 17.699,4.922c11.422,6.867 15.902,20.906 4.914,30.539c-3.926,3.449 -12.547,4.539 -16.715,0.098c-4.82,-5.137 -5.898,-17.43 5.898,-14.867" style="fill:none;fill-rule:nonzero;stroke:#000;stroke-width:6.22px;"/><path d="M301.598,191.07c-4.918,-22.66 -4.148,-55.68 21.629,-63.059c3.895,-1.113 12.781,-0.98 16.715,0.988c13.418,6.719 15.73,27.578 2.977,33.191c-3.445,1.52 -8.066,0.41 -11.062,-2.32c-4.695,-4.27 -3.715,-14.121 3.168,-15.109" style="fill:none;fill-rule:nonzero;stroke:#000;stroke-width:6.22px;"/><path d="M298.648,275.789c11.797,-27.578 33.426,-52.211 57.023,-46.301c13.656,3.422 17.633,18.172 12.375,28.203c-8.441,16.129 -32.039,-0.613 -16.703,-10.473" style="fill:none;fill-rule:nonzero;stroke:#000;stroke-width:6.22px;"/><path d="M229.883,124.578c-3.293,8.16 -20.703,10.332 -27.645,0.48c-8.004,-11.367 10.039,-16.469 14.258,-22.809c4.68,-7.031 3.156,-18.73 9.449,-27.141c1.48,-1.98 5.105,-4.848 7.723,-5.508c30.578,-7.66 26.773,17.699 6.477,27.867c-6.938,3.473 -2.453,19.711 6.855,15.781" style="fill:none;fill-rule:nonzero;stroke:#000;stroke-width:6.22px;"/><path d="M210.16,131.609c12.691,3.301 -3.508,23.961 20.191,28.711c21.75,4.352 24.793,-32.41 49.832,-17.359" style="fill:none;fill-rule:nonzero;stroke:#000;stroke-width:6.22px;"/><path d="M178.66,100.43c1.023,-4.93 -0.824,-7.57 -2.59,-9.852c-2.285,-2.957 -5.234,-2.957 -8.48,-7.559c-2.035,-2.879 -2.262,-7.82 -1.473,-11.379c0.504,-2.281 4.387,-8.672 6.734,-9.699c8.797,-3.883 12.266,0.449 15.68,-3.34c4.914,-5.461 2.551,-10.383 4.914,-14.332c2.953,-4.918 7.461,-6.238 11.176,-6.578c3.195,-0.293 6.25,1.387 9.469,0.43c6.797,-2.051 9.938,-9.062 17.672,-9.699c4.168,-0.352 10.41,0.418 13.887,2.738c1.078,0.719 2.68,6.109 3.156,6.109" style="fill:none;fill-rule:nonzero;stroke:#000;stroke-width:6.22px;"/><path d="M255.996,75.539c10.207,-3.68 17.398,0.141 21.594,7.152c7.566,12.629 -4.504,15.77 -5.023,27.758c-0.371,8.621 0.52,24.461 7.617,33.332" style="fill:none;fill-rule:nonzero;stroke:#000;stroke-width:6.22px;"/><path d="M217.043,97.469c5.898,-18.719 -21.586,-30.859 -3.066,-45.707c5.852,-4.691 17.305,0.969 22.047,-3.793c4.051,-4.059 12.652,-12.27 19.523,-8.828c12.723,6.371 25.094,24.301 11.027,34.711" style="fill:none;fill-rule:nonzero;stroke:#000;stroke-width:6.22px;"/><path d="M217.043,97.469c-3.762,11.43 -33.633,-4.66 -42.113,6.68c-4.742,6.332 -6.504,21.68 -3.152,28.402c1.203,2.398 4.797,2.66 5.668,4.41c2.023,4.059 2.508,9.418 6.301,12.629c4.785,4.039 8.555,5.441 11.668,5.148c11.797,-1.109 10.812,-11.949 21.629,-1.809" style="fill:none;fill-rule:nonzero;stroke:#000;stroke-width:6.22px;"/></svg>