<?xml version="1.0" encoding="UTF-8" standalone="no"?>
<!DOCTYPE svg PUBLIC "-//W3C//DTD SVG 1.1//EN" "http://www.w3.org/Graphics/SVG/1.1/DTD/svg11.dtd">
<svg width="100%" height="100%" viewBox="0 0 780 677" version="1.1" xmlns="http://www.w3.org/2000/svg" xmlns:xlink="http://www.w3.org/1999/xlink" xml:space="preserve" xmlns:serif="http://www.serif.com/" style="fill-rule:evenodd;clip-rule:evenodd;stroke-linecap:round;stroke-linejoin:round;stroke-miterlimit:10;">
    <g transform="matrix(1,0,0,1,-3220,-23)">
        <path d="M3652.879,276.539C3658.18,268.512 3632.461,345.398 3578.531,388.441C3541.871,417.699 3436.672,462.059 3423.09,469.961C3370.512,500.57 3339.711,516.145 3300.512,561.777C3285.219,579.578 3256.27,629.82 3247.859,666.438C3245.75,675.609 3229.879,596.449 3307.66,510.41C3357.02,455.801 3408.59,429.93 3475.148,398.691C3506.609,383.922 3541.539,372.309 3567.09,353.738C3618.34,316.5 3631.691,308.609 3652.879,276.539"/>
    </g>
    <g transform="matrix(0.1,0,0,-0.1,-3220,1477)">
        <path d="M36528.789,12234.609C36581.797,12314.883 36324.609,11546.016 35785.312,11115.586C35418.711,10823.008 34366.719,10379.414 34230.898,10300.391C33705.117,9994.297 33397.109,9838.555 33005.117,9382.227C32852.188,9204.219 32562.695,8701.797 32478.594,8335.625C32457.5,8243.906 32298.789,9035.508 33076.602,9895.898C33570.195,10441.992 34085.898,10700.703 34751.484,11013.086C35066.094,11160.781 35415.391,11276.914 35670.898,11462.617C36183.398,11835 36316.914,11913.906 36528.789,12234.609Z" style="fill:none;fill-rule:nonzero;stroke:black;stroke-width:69.44px;"/>
    </g>
    <g transform="matrix(0.1,0,0,-0.1,-3220,1477)">
        <path d="M38700,14133.594C38013.281,14050.117 36863.984,12810.898 36600.703,12276.094C36560,12193.398 36527.188,12120.781 36499.688,12055C36405.898,11830.117 36375.312,11685.117 36310.195,11490.312C36274.102,11382.109 36241.992,11285.898 36207.188,11195.898C36103.203,10927.891 35974.414,10715.781 35637.5,10406.992C35262.891,10063.711 34782.695,9967.656 33929.688,9683.281C33705.312,9608.516 32966.602,9369.375 32478.594,8328.359" style="fill:none;fill-rule:nonzero;stroke:black;stroke-width:69.44px;"/>
    </g>
</svg>
